<svg width="30" height="24" viewBox="0 0 30 24" fill="none" xmlns="http://www.w3.org/2000/svg">
<g clip-path="url(#clip0_2_1798)">
<g clip-path="url(#clip1_2_1798)">
<g clip-path="url(#clip2_2_1798)">
<path d="M4.77643 7.61611C6.71108 7.61611 8.27944 6.04775 8.27944 4.1131C8.27944 2.17845 6.71108 0.610107 4.77643 0.610107C2.84178 0.610107 1.27344 2.17845 1.27344 4.1131C1.27344 6.04775 2.84178 7.61611 4.77643 7.61611Z" stroke="#C8272C" stroke-width="0.963095" stroke-miterlimit="10" stroke-linecap="round" stroke-linejoin="round"/>
<path d="M20.4657 0.610107H25.4962C27.4309 0.610107 28.9992 2.17848 28.9992 4.1131C28.9992 6.04777 27.4308 7.61611 25.4962 7.61611H4.77686" stroke="#C8272C" stroke-width="0.963095" stroke-miterlimit="10" stroke-linecap="round" stroke-linejoin="round"/>
<path d="M4.77686 0.610107H15.4025" stroke="#C8272C" stroke-width="0.963095" stroke-miterlimit="10" stroke-linecap="round" stroke-linejoin="round"/>
<path d="M4.7761 4.6778C5.08795 4.6778 5.34077 4.42499 5.34077 4.11313C5.34077 3.80127 5.08795 3.54846 4.7761 3.54846C4.46424 3.54846 4.21143 3.80127 4.21143 4.11313C4.21143 4.42499 4.46424 4.6778 4.7761 4.6778Z" fill="#C8272C"/>
<path d="M4.77643 14.6223C6.71108 14.6223 8.27944 13.054 8.27944 11.1193C8.27944 9.18464 6.71108 7.61633 4.77643 7.61633C2.84178 7.61633 1.27344 9.18464 1.27344 11.1193C1.27344 13.054 2.84178 14.6223 4.77643 14.6223Z" stroke="#C8272C" stroke-width="0.963095" stroke-miterlimit="10" stroke-linecap="round" stroke-linejoin="round"/>
<path d="M10.7426 14.6221H4.77686" stroke="#C8272C" stroke-width="0.963095" stroke-miterlimit="10" stroke-linecap="round" stroke-linejoin="round"/>
<path d="M25.4953 7.61609C27.4304 7.61609 28.9985 9.18478 28.9985 11.1193C28.9985 12.0866 28.6066 12.9624 27.9725 13.5959C27.3384 14.2301 26.4631 14.622 25.4953 14.622H25.0791" stroke="#C8272C" stroke-width="0.963095" stroke-miterlimit="10" stroke-linecap="round" stroke-linejoin="round"/>
<path d="M4.7761 11.6839C5.08795 11.6839 5.34077 11.4311 5.34077 11.1192C5.34077 10.8074 5.08795 10.5546 4.7761 10.5546C4.46424 10.5546 4.21143 10.8074 4.21143 11.1192C4.21143 11.4311 4.46424 11.6839 4.7761 11.6839Z" fill="#C8272C"/>
<path d="M17.9338 1.17487C18.2457 1.17487 18.4985 0.922062 18.4985 0.610203C18.4985 0.298344 18.2457 0.0455322 17.9338 0.0455322C17.622 0.0455322 17.3691 0.298344 17.3691 0.610203C17.3691 0.922062 17.622 1.17487 17.9338 1.17487Z" fill="#C8272C"/>
<path d="M10.7422 7.61609V20.6538C10.7422 22.0378 11.8641 23.1597 13.248 23.1597H13.4926" stroke="#C8272C" stroke-width="0.963095" stroke-miterlimit="10" stroke-linecap="round" stroke-linejoin="round"/>
<path d="M25.0791 19.5318V7.61609" stroke="#C8272C" stroke-width="0.963095" stroke-miterlimit="10" stroke-linecap="round" stroke-linejoin="round"/>
<path d="M25.0796 19.7233H13.4927C14.4416 19.7233 15.211 20.4926 15.211 21.4415C15.211 22.3905 14.4416 23.1597 13.4927 23.1597H25.0796C26.0285 23.1597 26.7978 22.3905 26.7978 21.4415C26.7978 20.4925 26.0286 19.7233 25.0796 19.7233Z" stroke="#C8272C" stroke-width="0.963095" stroke-miterlimit="10" stroke-linecap="round" stroke-linejoin="round"/>
<path d="M13.9921 16.9767H21.8764C22.0903 16.9767 22.2265 16.7481 22.1247 16.56L20.8018 14.1143C20.733 13.9869 20.5789 13.9324 20.4452 13.9878L18.9406 14.6129C18.847 14.6518 18.7398 14.6376 18.6596 14.5755L15.7516 12.3266C15.6018 12.2109 15.3828 12.2723 15.3152 12.449L13.7284 16.5934C13.6576 16.7783 13.794 16.9767 13.9921 16.9767Z" stroke="#C8272C" stroke-width="0.963095" stroke-miterlimit="10" stroke-linecap="round" stroke-linejoin="round"/>
<path d="M19.8974 12.0118C20.5211 12.0118 21.0267 11.5062 21.0267 10.8825C21.0267 10.2588 20.5211 9.75317 19.8974 9.75317C19.2737 9.75317 18.7681 10.2588 18.7681 10.8825C18.7681 11.5062 19.2737 12.0118 19.8974 12.0118Z" stroke="#C8272C" stroke-width="0.963095" stroke-miterlimit="10" stroke-linecap="round" stroke-linejoin="round"/>
</g>
</g>
</g>
<defs>
<clipPath id="clip0_2_1798">
<rect width="28.4878" height="23.7563" fill="white" transform="translate(0.833984 0.0455322)"/>
</clipPath>
<clipPath id="clip1_2_1798">
<rect width="28.4878" height="23.7563" fill="white" transform="translate(0.833984 0.0455322)"/>
</clipPath>
<clipPath id="clip2_2_1798">
<rect width="28.8929" height="23.7563" fill="white" transform="translate(0.631836 0.0455322)"/>
</clipPath>
</defs>
</svg>
