<svg width="25" height="25" viewBox="0 0 25 25" fill="none" xmlns="http://www.w3.org/2000/svg">
<g clip-path="url(#clip0_2_1787)">
<g clip-path="url(#clip1_2_1787)">
<g clip-path="url(#clip2_2_1787)">
<path d="M23.1983 16.1523H19.3624L22.6827 14.2351C22.9564 14.0785 23.1564 13.8195 23.2387 13.515C23.3212 13.2105 23.279 12.8859 23.1215 12.6128L20.3492 7.81226C20.1913 7.53932 19.9312 7.3403 19.6265 7.25926C19.3218 7.17664 18.9967 7.22013 18.7244 7.37983L15.4035 9.29756L17.3202 5.97823C17.4793 5.70527 17.523 5.38012 17.4418 5.07471C17.3606 4.76931 17.1609 4.50886 16.8871 4.35118L12.0874 1.57884C11.8142 1.42187 11.49 1.38001 11.186 1.46229C10.8821 1.54458 10.6233 1.74413 10.4665 2.01727L8.54873 5.33933V1.50271C8.54801 0.84696 8.01659 0.315544 7.36085 0.314819H1.81777C1.16202 0.315544 0.630608 0.84696 0.629883 1.50271V22.8833C0.630608 23.539 1.16202 24.0704 1.81777 24.0712H23.1983C23.8541 24.0704 24.3855 23.539 24.3862 22.8833V17.3402C24.3855 16.6845 23.8541 16.153 23.1983 16.1523ZM1.81777 16.1523C1.68256 16.1538 1.54862 16.1785 1.42175 16.2254V12.193H4.59157L2.30569 16.1523H1.81777ZM17.7787 16.1523H12.3643L10.5504 13.0144L14.6645 10.6388L17.8305 16.1226L17.7787 16.1523ZM14.0314 10.0898L9.34404 12.7967L6.20412 10.9837L8.57882 6.87069L14.0623 10.0365L14.0314 10.0898ZM7.75685 6.71065L5.32381 10.925C5.32254 10.927 5.32054 10.9279 5.31927 10.9301L5.3171 10.9364L5.04885 11.4011H1.42175V6.64993H7.75685V6.71065ZM5.80828 11.6696L8.55216 13.254L3.53291 16.1523H3.22008L5.80828 11.6696ZM9.53686 13.5998L9.54195 13.5969L9.86477 13.4104L11.4498 16.1523H5.11664L9.53686 13.5998ZM7.75685 16.9442H12.5081V23.2793H7.75685V16.9442ZM13.2999 16.9442H18.0511V23.2793H13.2999V16.9442ZM19.122 8.06473C19.2122 8.01148 19.3204 7.99676 19.4217 8.02395C19.5239 8.05154 19.6111 8.11819 19.6644 8.20971L22.4351 13.0077C22.4878 13.0988 22.502 13.2073 22.4742 13.3089C22.4465 13.4104 22.3795 13.4969 22.2878 13.5486L18.5162 15.7262L15.3504 10.2426L19.122 8.06473ZM11.1531 2.41202C11.2049 2.32104 11.291 2.25434 11.3923 2.22679C11.4935 2.19924 11.6015 2.21302 11.6924 2.26522L16.4897 5.03593C16.5819 5.08903 16.6494 5.17658 16.6771 5.27934C16.7043 5.38139 16.6892 5.48995 16.6352 5.58076L14.4585 9.35068L8.97483 6.18485L11.1531 2.41202ZM1.81777 1.10668H7.36085C7.57941 1.10705 7.75652 1.28412 7.75685 1.50271V5.85788H1.42175V1.50271C1.42211 1.28412 1.59919 1.10705 1.81777 1.10668ZM1.42175 22.8833V17.3402C1.42211 17.1216 1.59919 16.9445 1.81777 16.9442H6.96499V23.2793H1.81777C1.59919 23.279 1.42211 23.1018 1.42175 22.8833ZM23.5944 22.8833C23.594 23.1018 23.4169 23.279 23.1983 23.2793H18.8431V16.9442H23.1983C23.4169 16.9445 23.594 17.1216 23.5944 17.3402V22.8833Z" fill="#C8272C"/>
<path d="M4.58861 18.528C3.71392 18.528 3.00488 19.237 3.00488 20.1117C3.00488 20.9864 3.71392 21.6954 4.58861 21.6954C5.46331 21.6954 6.17235 20.9864 6.17235 20.1117C6.17144 19.2373 5.46295 18.5289 4.58861 18.528ZM4.58861 20.9035C4.15127 20.9035 3.79675 20.549 3.79675 20.1117C3.79675 19.6743 4.15127 19.3198 4.58861 19.3198C5.02596 19.3198 5.38048 19.6743 5.38048 20.1117C5.38012 20.5488 5.02578 20.903 4.58861 20.9035Z" fill="#C8272C"/>
</g>
</g>
</g>
<defs>
<clipPath id="clip0_2_1787">
<rect width="23.7563" height="23.7563" fill="white" transform="translate(0.629883 0.314819)"/>
</clipPath>
<clipPath id="clip1_2_1787">
<rect width="23.7563" height="23.7563" fill="white" transform="translate(0.629883 0.314819)"/>
</clipPath>
<clipPath id="clip2_2_1787">
<rect width="23.7563" height="23.7563" fill="white" transform="translate(0.629883 0.314819)"/>
</clipPath>
</defs>
</svg>
