<svg width="24" height="25" viewBox="0 0 24 25" fill="none" xmlns="http://www.w3.org/2000/svg">
<g clip-path="url(#clip0_2_1772)">
<g clip-path="url(#clip1_2_1772)">
<g clip-path="url(#clip2_2_1772)">
<path d="M21.4844 18.1321H18.5148C18.2416 18.1321 18.0199 17.9104 18.0199 17.6372C18.0199 17.364 18.2416 17.1422 18.5148 17.1422H21.4844C22.303 17.1422 22.9691 16.4761 22.9691 15.6575V8.72853C22.9691 7.90992 22.303 7.24375 21.4844 7.24375H2.67726C1.85865 7.24375 1.19248 7.90992 1.19248 8.72853V15.6575C1.19248 16.4761 1.85865 17.1422 2.67726 17.1422H5.6468C5.92 17.1422 6.14172 17.364 6.14172 17.6372C6.14172 17.9104 5.92 18.1321 5.6468 18.1321H2.67726C1.31226 18.1321 0.202637 17.0215 0.202637 15.6575V8.72853C0.202637 7.36452 1.31226 6.25391 2.67726 6.25391H21.4844C22.8494 6.25391 23.959 7.36452 23.959 8.72853V15.6575C23.959 17.0215 22.8494 18.1321 21.4844 18.1321Z" fill="#C8272C"/>
<path d="M14.5556 21.1015H8.61651C8.34331 21.1015 8.12158 20.8798 8.12158 20.6066C8.12158 20.3334 8.34331 20.1117 8.61651 20.1117H14.5556C14.8288 20.1117 15.0505 20.3334 15.0505 20.6066C15.0505 20.8798 14.8288 21.1015 14.5556 21.1015Z" fill="#C8272C"/>
<path d="M14.5556 19.1219H8.61651C8.34331 19.1219 8.12158 18.9002 8.12158 18.627C8.12158 18.3538 8.34331 18.1321 8.61651 18.1321H14.5556C14.8288 18.1321 15.0505 18.3538 15.0505 18.627C15.0505 18.9002 14.8288 19.1219 14.5556 19.1219Z" fill="#C8272C"/>
<path d="M10.5962 17.1422H8.61651C8.34331 17.1422 8.12158 16.9205 8.12158 16.6473C8.12158 16.3741 8.34331 16.1523 8.61651 16.1523H10.5962C10.8694 16.1523 11.0911 16.3741 11.0911 16.6473C11.0911 16.9205 10.8694 17.1422 10.5962 17.1422Z" fill="#C8272C"/>
<path d="M18.5148 7.24375C18.2416 7.24375 18.0199 7.02203 18.0199 6.74883V2.78944C18.0199 1.97083 17.3537 1.30467 16.5351 1.30467H7.62648C6.80787 1.30467 6.1417 1.97083 6.1417 2.78944V6.74883C6.1417 7.02203 5.91998 7.24375 5.64678 7.24375C5.37358 7.24375 5.15186 7.02203 5.15186 6.74883V2.78944C5.15186 1.42543 6.26147 0.314819 7.62648 0.314819H16.5351C17.9001 0.314819 19.0097 1.42543 19.0097 2.78944V6.74883C19.0097 7.02203 18.788 7.24375 18.5148 7.24375Z" fill="#C8272C"/>
<path d="M16.5351 24.0712H7.62648C6.26147 24.0712 5.15186 22.9606 5.15186 21.5966V13.6778C5.15186 13.4046 5.37358 13.1829 5.64678 13.1829H18.5148C18.788 13.1829 19.0097 13.4046 19.0097 13.6778V21.5966C19.0097 22.9606 17.9001 24.0712 16.5351 24.0712ZM6.1417 14.1727V21.5966C6.1417 22.4152 6.80787 23.0813 7.62648 23.0813H16.5351C17.3537 23.0813 18.0199 22.4152 18.0199 21.5966V14.1727H6.1417Z" fill="#C8272C"/>
</g>
</g>
</g>
<defs>
<clipPath id="clip0_2_1772">
<rect width="23.7563" height="23.7563" fill="white" transform="translate(0.202637 0.314819)"/>
</clipPath>
<clipPath id="clip1_2_1772">
<rect width="23.7563" height="23.7563" fill="white" transform="translate(0.202637 0.314819)"/>
</clipPath>
<clipPath id="clip2_2_1772">
<rect width="23.7563" height="23.7563" fill="white" transform="translate(0.202637 0.314819)"/>
</clipPath>
</defs>
</svg>
