<svg width="25" height="24" viewBox="0 0 25 24" fill="none" xmlns="http://www.w3.org/2000/svg">
<g clip-path="url(#clip0_2_1821)">
<g clip-path="url(#clip1_2_1821)">
<g clip-path="url(#clip2_2_1821)">
<path d="M24.08 11.8697C24.647 10.7348 24.4122 9.38759 23.4958 8.51725L22.1656 7.25407C21.8588 6.96279 21.6712 6.63402 21.5752 6.21942L21.1591 4.4224C20.8725 3.18422 19.8367 2.30485 18.5817 2.23424L16.7603 2.13173C16.3402 2.10807 15.9876 1.97823 15.6507 1.72314L14.1903 0.617085C13.1843 -0.144937 11.8321 -0.145034 10.8258 0.617085L9.36542 1.72309C9.02855 1.97823 8.67589 2.10807 8.2558 2.13173L6.43444 2.23424C5.17949 2.30485 4.1437 3.18422 3.85704 4.4224L3.44091 6.21946C3.34495 6.63402 3.15736 6.96279 2.85058 7.25413L1.52038 8.51725C0.603922 9.38752 0.369144 10.7348 0.936138 11.8697L1.75913 13.5169C1.94897 13.8969 2.01413 14.2707 1.96416 14.6934L1.74763 16.5262C1.59851 17.7888 2.27454 18.9735 3.42989 19.4742L5.10682 20.2008C5.49359 20.3684 5.78102 20.6125 6.01139 20.9687L7.00986 22.5135C7.69773 23.5777 8.96823 24.0457 10.1714 23.6778L11.9176 23.1438C12.3204 23.0206 12.6957 23.0206 13.0984 23.1438L14.8446 23.6778C15.1184 23.7614 15.3955 23.8019 15.6685 23.8019C16.5956 23.8018 17.4748 23.3356 18.0061 22.5135L19.0047 20.9687C19.235 20.6125 19.5224 20.3684 19.9092 20.2008L21.5862 19.4741C22.7415 18.9735 23.4176 17.7888 23.2684 16.5261L23.0519 14.6934C23.0019 14.2707 23.067 13.8968 23.2569 13.5168L24.08 11.8697ZM22.573 13.1671C22.3154 13.6827 22.2231 14.212 22.2909 14.7855L22.5074 16.6182C22.6176 17.5505 22.1375 18.3917 21.2845 18.7614L19.6076 19.488C19.0828 19.7155 18.6757 20.061 18.3633 20.5444L17.3648 22.0891C16.8569 22.8749 15.9546 23.2071 15.0664 22.9354L13.3202 22.4015C13.0469 22.318 12.7776 22.2762 12.5081 22.2762C12.2386 22.2762 11.9691 22.318 11.6959 22.4015L9.94976 22.9354C9.06147 23.207 8.15926 22.8749 7.65134 22.0891L6.65288 20.5444C6.34035 20.0609 5.93331 19.7154 5.40857 19.488L3.73163 18.7614C2.87855 18.3918 2.39856 17.5505 2.50869 16.6182L2.72521 14.7855C2.793 14.212 2.70074 13.6826 2.44315 13.167L1.62016 11.5198C1.20157 10.6818 1.36823 9.72532 2.04488 9.08271L3.37508 7.81953C3.79132 7.42432 4.05695 6.95876 4.18715 6.39633L4.6033 4.59926C4.81494 3.6851 5.55041 3.06068 6.47697 3.00857L8.29837 2.90606C8.86832 2.87398 9.3676 2.69008 9.82465 2.34397L11.2851 1.23792C12.028 0.675296 12.9881 0.675247 13.731 1.23792L15.1914 2.34397C15.6484 2.69008 16.1478 2.87398 16.7177 2.90606L18.5391 3.00857C19.4657 3.06072 20.2012 3.6851 20.4128 4.59931L20.8289 6.39633C20.9591 6.95883 21.2248 7.42432 21.6411 7.81953L22.9712 9.08271C23.6478 9.72526 23.8145 10.6818 23.3959 11.5198L22.573 13.1671ZM12.5081 3.99627C8.1881 3.99627 4.67357 7.55221 4.67357 11.9231C4.67357 16.294 8.1881 19.8499 12.5081 19.8499C16.8281 19.8499 20.3426 16.294 20.3426 11.9231C20.3426 7.55221 16.8281 3.99627 12.5081 3.99627ZM12.5081 19.0744C8.61076 19.0744 5.44004 15.8663 5.44004 11.9231C5.44004 7.97982 8.61076 4.77176 12.5081 4.77176C16.4054 4.77176 19.5762 7.97982 19.5762 11.9231C19.5762 15.8663 16.4054 19.0744 12.5081 19.0744ZM15.7701 8.3301C15.7682 8.3301 15.7662 8.3301 15.7643 8.3301C15.3814 8.33162 15.0223 8.48392 14.7532 8.75897L11.5752 12.0064L10.2627 10.6784C9.99167 10.4042 9.63123 10.2532 9.24783 10.2532C8.8643 10.2532 8.50393 10.4042 8.23284 10.6785C7.67331 11.2447 7.67331 12.166 8.23284 12.7321L10.5639 15.0907C10.8437 15.3737 11.2112 15.5153 11.5788 15.5153C11.9464 15.5153 12.314 15.3738 12.5938 15.0907C13.4775 14.1964 14.3693 13.2813 15.2317 12.3963C15.7499 11.8644 16.2682 11.3326 16.7876 10.8021C17.3434 10.2346 17.3405 9.31506 16.7811 8.75224C16.5105 8.47983 16.1516 8.3301 15.7701 8.3301ZM16.2432 10.2561C15.7232 10.7872 15.2045 11.3194 14.6859 11.8518C13.8244 12.7358 12.9336 13.65 12.0517 14.5423C11.791 14.8061 11.3666 14.8061 11.1059 14.5423L8.77488 12.1837C8.51415 11.9199 8.51415 11.4906 8.77488 11.2267C8.90118 11.099 9.06913 11.0286 9.24783 11.0286C9.42646 11.0286 9.59441 11.099 9.72071 11.2267L11.3055 12.8302C11.3775 12.9029 11.4749 12.9438 11.5765 12.9438H11.5775C11.6795 12.9436 11.7772 12.9021 11.8488 12.8289L15.2978 9.3045C15.4227 9.17688 15.5895 9.1062 15.7673 9.10554H15.77C15.9476 9.10554 16.1147 9.17523 16.2407 9.302C16.5008 9.56391 16.502 9.99185 16.2432 10.2561Z" fill="#C8272C"/>
</g>
</g>
</g>
<defs>
<clipPath id="clip0_2_1821">
<rect width="23.7563" height="23.7563" fill="white" transform="translate(0.629883 0.0455322)"/>
</clipPath>
<clipPath id="clip1_2_1821">
<rect width="23.7563" height="23.7563" fill="white" transform="translate(0.629883 0.0455322)"/>
</clipPath>
<clipPath id="clip2_2_1821">
<rect width="23.7563" height="23.7563" fill="white" transform="translate(0.629883 0.0455322)"/>
</clipPath>
</defs>
</svg>
