<svg width="191" height="130" viewBox="0 0 191 130" fill="none" xmlns="http://www.w3.org/2000/svg">
<path d="M189.731 72.0411C187.939 62.7077 182.898 54.7094 176.157 48.3779C177.456 29.9093 163.016 12.614 144.636 6.32704C129.08 1.00696 112.937 4.80586 102.385 14.9201C87.9093 -6.35214 45.2741 -2.58561 27.9862 11.8979C14.8453 22.9063 10.8925 41.3627 14.5702 58.0511C8.81699 62.3072 4.43939 68.5214 2.25868 75.2736C-5.23828 98.4918 15.8204 119.809 39.1163 115.84C40.6983 115.569 42.264 115.16 43.7933 114.634C48.2195 118.113 53.1959 120.957 58.4191 123.069C76.0226 130.186 96.7939 130.845 115.494 129.328C134.032 127.827 155.058 124.635 170.671 113.756C184.241 104.301 192.952 88.8186 189.735 72.0371L189.731 72.0411Z" fill="#B8E9F5"/>
</svg>
