<svg width="172" height="130" viewBox="0 0 172 130" fill="none" xmlns="http://www.w3.org/2000/svg">
<path d="M164.887 37.4152C156.502 25.4945 140.149 19.7645 127.471 24.7314C119.086 3.67433 89.0588 -3.95999 66.5456 1.91785C40.7688 8.64815 29.282 34.1738 35.9754 56.8327C28.9082 55.3031 21.2216 56.4271 14.7531 60.1429C1.99966 67.4747 -2.23995 83.2933 1.44246 96.8777C5.35328 111.304 17.6603 122.472 32.6391 124.29C45.1849 125.813 56.554 121.327 66.5699 114.549C77.2814 131.089 103.418 132.643 122.19 127.157C134.168 123.658 144.977 116.594 151.909 106.162C155.623 100.576 158.782 92.9832 158.599 85.9435C175.37 78.6254 175.014 51.8039 164.891 37.4152H164.887Z" fill="#B8E9F5"/>
</svg>
