<svg width="171" height="131" viewBox="0 0 171 131" fill="none" xmlns="http://www.w3.org/2000/svg">
<path d="M169.612 73.7216C166.134 58.6326 155.409 43.5889 139.501 39.3247C131.18 37.0948 121.918 38.1138 114.316 41.9802C114.498 24.4485 105.651 6.7528 87.113 1.59518C74.3166 -1.9677 60.9586 3.43071 54.2509 13.4668C45.5614 9.20947 34.3927 9.3665 25.7604 14.053C9.0718 23.119 2.5001 43.7285 0.847337 61.1242C-0.780385 78.2232 4.31742 96.8262 18.9276 107.455C29.4917 115.14 43.948 118.106 56.1756 113.496C65.5341 125.898 81.9723 131.956 97.7773 130.197C108.771 128.972 124.429 123.7 132.653 114.449C139.007 117.551 146.906 117.931 153.8 115.154C170.148 108.558 173.067 88.7059 169.615 73.7216H169.612Z" fill="#B8E9F5"/>
</svg>
