<svg width="195" height="130" viewBox="0 0 195 130" fill="none" xmlns="http://www.w3.org/2000/svg">
<path d="M190.312 61.6113C183.739 51.8204 171.575 48.006 160.494 49.9936C161.087 24.546 140.721 0.670338 113.259 0.016716C83.6817 -0.690536 60.5334 21.9918 56.5748 49.0551C39.9762 35.3994 12.7118 38.3491 3.20577 61.7186C-7.19519 87.2936 14.7732 110.204 38.7795 107.985C41.7795 121.037 56.5916 129.075 70.4182 129.886C88.0827 130.925 105.409 124.808 119.52 114.461C137.584 130.496 166.926 125.763 179.05 104.083C193.416 95.7237 200.251 76.4201 190.309 61.608L190.312 61.6113Z" fill="#B8E9F5"/>
</svg>
