<svg width="173" height="130" viewBox="0 0 173 130" fill="none" xmlns="http://www.w3.org/2000/svg">
<path d="M165.268 37.4141C156.882 25.4934 140.53 19.7634 127.852 24.7303C119.467 3.67323 89.4397 -3.96109 66.9265 1.91675C41.1496 8.64705 29.6629 34.1727 36.3563 56.8316C29.2891 55.302 21.6024 56.426 15.134 60.1418C2.38052 67.4736 -1.85909 83.2922 1.82332 96.8766C5.73414 111.303 18.0411 122.471 33.02 124.289C45.5658 125.812 56.9348 121.326 66.9507 114.548C77.6622 131.088 103.799 132.642 122.571 127.156C134.549 123.657 145.358 116.593 152.29 106.161C156.003 100.575 159.163 92.9821 158.98 85.9424C175.751 78.6243 175.395 51.8028 165.272 37.4141H165.268Z" fill="#B8E9F5"/>
</svg>
